<?xml version="1.0" encoding="UTF-8" standalone="no"?>
<svg xmlns:rdf="http://www.w3.org/1999/02/22-rdf-syntax-ns#" xmlns="http://www.w3.org/2000/svg" version="1.1" xml:space="preserve" viewBox="0 0 252.00001 119.99799" height="120" width="252" enable-background="new 0 0 595.275 311.111" y="0px" x="0px" xmlns:cc="http://creativecommons.org/ns#" xmlns:dc="http://purl.org/dc/elements/1.1/"><g fill="#fff" transform="matrix(1.1225 0 0 1.1225 -1.4821 16.737)"><path d="m15.567 25.025h6.1084l18.237 48.647 18.325-48.647h6.0645v65.61h-4.4824v-57.612l-16.875 45h-6.0645l-16.831-45v57.612h-4.4824v-65.61z"/><path d="m109.35 29.463-14.062 36.914h27.905l-13.843-36.914zm-2.8125-4.4385h5.7568l25.093 65.61h-5.0098l-7.8223-20.61h-30.63l-7.7783 20.61h-4.6582l25.049-65.61z"/><path d="m151.23 25.025h4.5703v65.61h-4.5703v-65.61z"/><path d="m177.86 25.025h4.3945v62.007h31.948v3.6035h-36.343v-65.61z"/></g></svg>
